<svg width="16" height="13" viewBox="0 0 16 13" fill="none" xmlns="http://www.w3.org/2000/svg">
<path d="M10.2757 7.07143L9.32143 8.99999H6.10714L5.1529 7.07143H1.97879C1.99888 7.0212 2.00893 6.96094 2.02902 6.91071L4.15848 1.92857H11.2701L13.3996 6.91071C13.4196 6.96094 13.4297 7.0212 13.4498 7.07143H10.2757ZM15.4286 7.37276C15.4286 7.01116 15.3181 6.47879 15.1775 6.13728L12.7868 0.592628C12.6462 0.261155 12.2444 0 11.8929 0H3.53571C3.18415 0 2.78237 0.261155 2.64174 0.592628L0.251116 6.13728C0.110491 6.47879 0 7.01116 0 7.37276V12.2143C0 12.5658 0.291295 12.8571 0.642857 12.8571H14.7857C15.1373 12.8571 15.4286 12.5658 15.4286 12.2143V7.37276Z" fill="#7E5AFF"/>
</svg>
