<svg width="9" height="14" viewBox="0 0 9 14" fill="none" xmlns="http://www.w3.org/2000/svg">
<path d="M6.42857 4.50007C6.42857 5.68032 5.46596 6.64293 4.28571 6.64293C3.10547 6.64293 2.14286 5.68032 2.14286 4.50007C2.14286 3.31982 3.10547 2.35721 4.28571 2.35721C5.46596 2.35721 6.42857 3.31982 6.42857 4.50007ZM8.57143 4.50007C8.57143 2.13121 6.65458 0.214355 4.28571 0.214355C1.91685 0.214355 0 2.13121 0 4.50007C0 5.01067 0.0585938 5.53802 0.276228 5.9984L3.33147 12.4772C3.49888 12.8455 3.88393 13.0715 4.28571 13.0715C4.6875 13.0715 5.07255 12.8455 5.24833 12.4772L8.2952 5.9984C8.51283 5.53802 8.57143 5.01067 8.57143 4.50007Z" fill="#2C4058"/>
</svg>
